<?xml version="1.0" encoding="utf-8"?>
<!-- Generator: Adobe Illustrator 26.3.1, SVG Export Plug-In . SVG Version: 6.00 Build 0)  -->
<svg version="1.1" id="Capa_1" xmlns="http://www.w3.org/2000/svg" xmlns:xlink="http://www.w3.org/1999/xlink" x="0px" y="0px"
	 viewBox="0 0 80 80" style="enable-background:new 0 0 80 80;" xml:space="preserve">
<style type="text/css">
	.st0{fill:#667EEA;}
</style>
<path class="st0" d="M40,5C18,5-0.1,12.3,0,37.6v4.9C-0.1,67.7,17.9,75,40,75c22-0.1,40-7.4,40-32.6v-4.9C80,12.3,62.1,5,40,5z
	 M58.7,41.9L58,42.3L30,57.2c-0.4,0.2-0.8,0.3-1.2,0.3c-1.2,0-2.3-0.9-2.5-2.2V24.8c0-1.4,1.1-2.5,2.5-2.5c0.5,0,0.9,0.1,1.2,0.3
	l28.1,15l0.5,0.2l0,0c0.7,0.5,1.1,1.2,1.1,2.1C59.7,40.7,59.4,41.4,58.7,41.9z"/>
</svg>
