<?xml version="1.0" encoding="utf-8"?>
<!-- Generator: Adobe Illustrator 26.3.1, SVG Export Plug-In . SVG Version: 6.00 Build 0)  -->
<svg version="1.1" id="Capa_1" xmlns="http://www.w3.org/2000/svg" xmlns:xlink="http://www.w3.org/1999/xlink" x="0px" y="0px"
	 viewBox="0 0 738.8 122.6" style="enable-background:new 0 0 738.8 122.6;" xml:space="preserve">
<style type="text/css">
	.st0{fill:#FFFFFF;}
</style>
<g>
	<path class="st0" d="M57.1,56.4l22.1-30.9h34.9L71.8,82.2v29.4H42.4V82.2L0,25.5h35L57.1,56.4z"/>
	<path class="st0" d="M156.7,23.3c-28.4,0.1-51.7,9.4-51.6,42v6.3c-0.1,32.5,23.1,42,51.6,42c28.4-0.1,51.6-9.5,51.5-42v-6.3
		C208.2,32.8,185.1,23.3,156.7,23.3z M180.8,70.9l-0.9,0.5l-36.1,19.2c-0.5,0.2-1,0.4-1.5,0.4c-1.6,0-3-1.2-3.2-2.8V48.9
		c0-1.8,1.4-3.2,3.2-3.2c0.6,0,1.1,0.1,1.5,0.4L180,65.4l0.6,0.3l0,0c0.9,0.6,1.4,1.5,1.4,2.7C182.1,69.4,181.6,70.3,180.8,70.9z"/>
	<path class="st0" d="M290.1,25.4h29.5v46.3c0.1,32.5-23.3,41.9-51.6,42c-28.3-0.1-51.7-9.4-51.6-42V25.4h29.4v44.1
		c-0.1,14.2,10.1,16.6,22.1,16.8c12-0.2,22.2-2.6,22.1-16.8V25.4H290.1z"/>
	<path class="st0" d="M329.8,115.8c-2.3,0.9-8.1,3-10.2,2.6c-0.3-0.3-0.8-0.9-0.2-1.3c1.2-1.4,3.5-2.5,4.8-4.1
		c-0.7,0-1.4-0.1-2.1-0.3c-1.7-0.5,0.5-2.2-0.9-3.8c-2.3-2.6-4.6-2.1-3.9-6.7c0.1-1.2,0-1.3-1-1.2c-0.9,0.1-1.6,0.5-2.5,0.5
		c-2.3,0-4.5-2.4-2.5-4.7c2.4-2.9,35.9-15,37.6-17.6c4.6-3,6-2.5,9.9-7.7l0.2-0.1l-0.1-0.7l-0.2,0.1c-0.9,1.3-2.6,3.1-3.9,4.1
		c-2.2,1.7-7.1,0.8-9.9,0.8c-10.4,0-25.9-2.2-22.6-18.9c2.9-14.4,20.9-27.2,31-34.8c6.1-4.7,12.7-8,19.7-10.8
		c1.3-0.5,9.9-4.9,9.7-1.7c-0.1,2-3.7,2.1-4.8,3.4c4.1,0,9.7-1,13.7,0.5l0.7,1l-0.9,1c-4.8,1-9.7,1.7-14.5,3l-0.5,0.4
		c-1-0.1-5.9,1.4-6.3,2.4l2.2-1.2c1.5-0.1,2.9-0.3,4.1-1.3c4.1-0.8,8.5-2,12.7-2.1c6.6-0.3,5.3,12.1,2.8,16c-1.3,2,1.3,2.5-0.9,3.5
		c-3,1.4-6.9,2.9-10.1,3.7c-4.4,1-8.7,3.7-13,4.5c-1.7,0.3-2.3-1.8-1-3c1.3-1,5.4-2.6,7.1-3.7c-10.9,4.1-20.1,7.6-29.1,16l-0.3,0.8
		C357.7,54.1,370.3,54,378,65c0.6,0.9,6.7,9.8,0.7,19.9C370,99.1,344.3,110.5,329.8,115.8z"/>
	<path class="st0" d="M395.2,22c-5.2-3.5,10.5-6.2,12.1-6.6c10.9-2.2,36.5-4.7,46-2.6c0.9,0.3,2.3,0.7,2.4,2s-0.7,1.7-1.6,2
		c-2.3,0.8-2.8,3.4-4.8,3.7c0.9,0.7,3.2,0.9,4.5,1.3c6.3,1.8-0.3,4.6-2.5,5.1c-0.8,0.3-1.7-0.4-2.3,0.7c1.4,0.9,3.9,1.6,2.6,3.9
		c-0.8,1.6-1.8,2.6-3.5,2.6c-5.1,0-10.1-1-15.3-1l-0.8,0.5c-0.1,0.5,0.3,0.4,0.6,0.4c2.3,0,4.7,0.1,7,0.3c2.8,0.1,7-0.1,9.1,2.1
		c4.7,4.9-7.9,3.1-8.7,3.1c-0.2-0.3-0.6-0.3-0.9-0.3c-4.4,0.4-8.1-0.4-12.3-0.7c-2-0.1-6.1-1.2-6.9,1.3c-6.2,18.6-11.3,39-14,58.5
		c-0.6,4.2-3.5,5.8-3.5,2.6s1.3-6.6,1.6-9.7l-0.2-0.4c-1.6,3.3-3.8,17.5-5.9,22.8c-2.5,6.6-4.5-3.5-5.3-5c-1.4-2.4-1.7,1.7-3.8,2.1
		c-1.5,0.3-2.3-0.5-3-2c-1.2-2.2-4-0.4-3.6-4.1c0.1-0.9,0.3-1.7,0.6-2.6c2.9-10.2,5.1-20.9,7.9-31.1c3-10.8,7.4-20.7,10.9-31.2
		c0.9-2.8,1.8-2.5,4.1-2.5l0.3-0.3l-0.5-0.4c-5.3,1-11.6,1.2-17,1.7c-1.2,0.1-2.4-0.3-2.9-1.7c-0.8-2.9,3.2-1.7,2.5-5.1l-0.1-0.9
		c-0.6-3.1-1.2-3.3,1.6-5.1c2.4-1.6,4.7-2.2,7.4-3C396.5,22.4,395.8,22.4,395.2,22z"/>
	<path class="st0" d="M456.6,8.8l-0.8-0.4l0.3-1c4.1-3,25.1-8.8,29.5-7.1l0.7,0.8L485.9,2c-1.8,0.9-3.9,0.9-5.8,1.8
		c14,0,19.8-1,33.5,5c4.7,2.1,6.9,5.5,10.8,8.1l-0.2-1.2c-1.8-2.6-4.5-4.7-6.8-6.7V8.6l0.5-0.3c14.4,4.2,19.3,23.4,14,38.2
		c-2.6,7.3-8.6,15.5-14.5,19.7c-8.4,6.2-17.3,8.7-26.8,11.4l-0.5,1c6,8.7,12.7,17.1,20.6,23.5c1.2,0.9,4.3,2.6,4.9,3.4
		c0.9,1,0.7,2.6-0.5,3.4c-2.8,0-2.1,1.8-3,3.9l0.6,1.4c4.8,5.2-5.8,3.4-6.6,4.1c3.8-0.8,3.7,5.5-1.8,3.9c-5.8-1.7-9.6-6.4-14.3-10.1
		c1,1,4.4,4.5,4.8,5.6l-0.1,1.4l-1.3,0.4c-7.4-6-20.3-22.8-23.9-32.3l-0.7-0.5c-0.2,1.4-0.8,2.9-1.2,4.3c-0.9,4.1-5.3,27-6.2,28.7
		c-0.9,1.8-2.8,1-3.3-0.7c-0.6-1.7-0.3-4.9-0.5-6.7l-0.2-0.5l-0.6,0.5c-3,8.3-5.4,10.6-5.4-0.8l-0.5-0.7c-1.2,1.3-0.8,4.1-3.1,3.8
		c-1.4-0.1-2.8-0.9-2.9-2.6c-0.3-3.8-1.3-7.1-2.1-10.8c-0.6-2.8,0.1-4.9,0-7.5l-0.7,0.4l-1.4,2.9l-1,0.5l-0.7-0.9
		c-0.6-3.1,5.3-17.2,6.4-21.3c1-3.7-7,0.3-7-2.8l0.8-1.2c3-1,3.2,0.3,5.6-2.6l-0.2-0.4c-3.3,0-6.9,1.3-10.1,1
		c-2.5-0.1-4.7-4.7,2.8-5.8c2.8-0.4-4.1-7.3-0.3-8.8c4.4-1.7,14.4,3.3,16.3-3c0.9-2.8,7.9-23.4,7.4-24.3c-1-1.8-12.9,6.7-11.7,0
		c-1.2-2.5-4.3-7-3.1-9.7c2-4.7,10.9-8,15.1-10C459.6,8.4,458.1,8.7,456.6,8.8z M465.7,26.8c-0.1,0.3-0.5,0.5-0.7,0.7
		c-2.6,8.5-6.9,18-8.5,26.8c0,0.1,0.3,0.1,0.5,0.1C458.6,50.3,466,30.1,465.7,26.8z M479.9,26.2c-0.9,0-1.7,0.1-2.6,0.3
		c0.9,0,2,0.4,2.6-0.4c1.2,0,4.3-0.8,4.1,1.3c-0.5,6.8-5.9,18-6.7,25.6l0.3,0.9c1.8,0,3.9,0.5,5.6-0.5c6.8,0.3,13-1.8,19.6-3.1
		l0.2-0.5l-0.2-0.1c-5.5-0.3-14.6,3.7-19.6,3.9c-0.8,0-3.8,0.4-3.8-1c0-0.7,0.3-1.2,0.7-1.6c1.4-1.4,47.2-10,29.2-22.2
		c-3.7-2.5-7.8-3.4-12-3.8c-5.6-0.4-11.4,0-17,0.9L479.9,26.2z"/>
	<path class="st0" d="M542.5,41.6c-1.2,0.1-2.2,0.7-3.3,0.9c-1.7,0.4-2.2-0.3-2-2.1c0.1-1-5.3-6.4-0.7-8.9c1.2-0.7,2.4-0.7,3.5-1.6
		c-0.8-0.7-1.2-0.3-2.1-0.5l-0.7-0.9l0.6-1.4c12.5-3,25.2-7.1,38-8.7c4.9-0.5,9.3,2.5,12.8,2.2c3-0.3,7.4-0.8,10.1,0.4
		c0.8,0.4,1.6,1.2,1.6,2.2c0.1,2.9-4.5,2.8-6.1,3c-2.6,0.4,3.2,7.5-1.4,8c-4.6,0.5-10.1-0.4-14.5,0.9l0.7,0.3
		c3.8-0.3,7.6,0.4,11.3-0.5c0.3-0.1,2-0.1,2.3,0s0.6,0.5,0.6,0.9c-0.7,2-1.8,3-3.7,3.3c-5.1,0.9-28.3,0.7-29.3,4.1
		c-0.5,1.4-1.2,3-1.5,4.5s6.1-0.1,7.2-0.3c2.5-0.3,14.3-2,15.9-1.6c4,0.9-0.3,4.2,1.4,4.2c0.8,0,1.7,0,2.5,0.1
		c1.3,0.1,2.8,0.3,2.8,2.2c0,2.9-5.5,2.8-7.4,3.1c-0.7,0.1-1,0.7-0.9,1.4c0.1,0.8,0,3.8,0.2,4.1c0.8,1,4.8-0.3,4.7,2.9
		c0,1-0.6,1.7-1.5,1.8C577,67,569.7,67.2,563,68c-2.4,0.3-13,0.8-13.8,3c-1.6,4.2-3.6,8.9-4.7,13.3c-0.2,1,0.1,1.6,1,1.3
		c4.4-1,26.6-8.4,29.5-6.2c0.8,0.7,0.9,1.3,0.8,2.4c-0.3,2.4-5.3,2.4-7,2.9c-0.3,0.1-1.3,0.4-1.3,1c0.1,1.3,5.2-0.4,6.8,0.8
		c3.3,2.5-3.7,3.1-3.6,5.4c0,0.7,0.1,1.3,0.8,1.3c1.3,0,6.2-0.7,6.8,1.6c0.3,1.4-0.7,2.4-1.6,2.9c1,0.4,4.9-0.1,4.5,1.7
		c-0.1,0.5-0.5,0.9-0.8,1.2c-0.8,0.4-2.8,0.8-3.7,0.9c-11.7,2.2-22.8,5.6-34.3,8.9c-2.6,0.8-1.6-1.8-3.6-1.3
		c-2.9,0.8-3.9,6.3-4.9,9.2c-1.7,4.7-4.6,2.5-3.6-3l-0.2-0.9h-1c-1.6,0.9-3.9,5.2-5.4,0.3c-1-3.5-4.6-0.1-4.6-4.7
		c0.1-5.9,0-12.3,2.1-17.7c2.3-5.9,4.8-11.7,7.1-17.6c0.8-2-0.3-2-2-2.2l-0.6-1l0.7-1c3-1.3,9-1.2,10.8-2.4l-0.6-0.3
		c-1.6,0.3-3.2,0.5-4.8,0.7c-4.3,0.3-7.2-5.6-2.6-8.9c3.9-2.8,5.9,0.1,8.4-5.9C539.3,49.8,540.8,45.7,542.5,41.6
		c1.4,0,3-0.1,4.5-0.3c-1-0.1-2.1-0.3-3.1-0.3L542.5,41.6z"/>
	<path class="st0" d="M619,103.6c-0.2,3.1-0.1,7.7-0.9,10.6c-0.6,2.2-3.6,2-3.9-0.3c-0.3-2.4,0.7-4.9,0.9-7.2
		c0.9-1.8-2.6,0.8-2.5-2.9c0.1-4.9,2.1-11.2,3.2-15.9c0.6-2.5,0.9-2.9,3.2-2.9c1.5,0,2.9-0.1,4.4-0.1l0.5-0.5l-0.3-0.1
		c-6.1,0.4-12,1.3-18.1,1.8c-7,0.7-12.7,24.9-17.5,22.3c-0.5-0.3-1.7-0.5-2-1c-0.7-1.4,0.3-4.1,0.1-5.5c-6.4-2.1-3.1-6-2-11
		c0.6-2.4-5.4-0.8-6.8-0.8l-0.8-0.8l0.3-1.3c0.5-0.4,0.9-0.8,1.5-0.9c-1.2-0.4-1.8,0.4-2.5-1c-3-5.9,7.4-7.7,10-9.7
		c-1,0-2.1-0.1-3.1-0.1c-4.1-0.1-2.6-2.9,0.1-3.5c2.5-0.5,5.4-1.2,8.1-1.3c4.1-0.3,4.6-1,7.1-4.6c9-12.6,18.4-24.9,27.6-37.4
		c4.9-6.8,9.2-14.4,14.3-21c2.2-2.9,1.8,2.6,3.3,0.9c1.7-2,2.4-3.8,4.7-1.3c1.6,1.7,6.4-4.9,5.8,0.3c-0.1,1.2-0.7,2.2-0.9,3.4
		l0.2,0.7l0.3-0.4c1.6-4.9,4.3-2.9,3.9-0.4c-0.2,1.3-3.6,8.8-4.3,11.2c-4.3,13.4-10,27.8-12,41.9c-0.3,2.2,3.5,1.4,4.7,1.4
		c2.3,2.1,0.3,3.3-1.3,4.2c-2.3,1.4,1.8,2.6-1.2,5.1c-0.8,0.7-1.2,1-1.2,2.2c0.1,2.9-2.4,1.2-2.9,4.7c-0.8,6.3-0.7,12.7-1.7,18.9
		c-0.8,4.6-0.3,9.3-1.2,13.9c-0.2,1.4-0.9,2.4-2.3,2.5c-1.8,0.3-2.8-0.5-3.3-2.5c-0.7-2.2-2.3,2.4-3.9-1.8l-0.5-1.2
		c-1.3-2.9-2.3,5.8-5.6,1.3c-1.4-1.8-1.6-7.3-1.6-9.7h0.1L619,103.6L619,103.6z M583.9,85.7c0.6,0.3,1.6,0.1,2.2,0
		C585.5,85.5,584.5,85.5,583.9,85.7z M589.3,85.3l0.7-0.4c-0.7,0-1.4-0.1-2,0.1l0.6,0.3H589.3z M624.9,52l-0.6,0.3
		c-2.2,2.6-7.9,10.2-9.1,13.3c-0.7,2,6.1,1.8,6.8-0.1c1.3-4.1,2.1-8.5,3.1-12.7L624.9,52z M649.1,23.8l-0.2-0.5l-0.2,0.1
		c-0.1,0.7-0.3,1.2-0.5,1.8l0.2,0.3L649.1,23.8z M651,17.5c-0.8,0.9-1.4,1.6-0.8,2.9c0.3-1.3,2-4.7,1.6-5.6
		C651.4,15.7,651.1,16.6,651,17.5z"/>
	<path class="st0" d="M654.5,112.2c-2.5,2.5-2.5-5-2.5-6c-3.6,0.3-2.3-1.2-4.5-2.9c-5.1-3.9-0.8-18.9,0.7-24.5
		c1-3.9,2.5-7.7,3.6-11.7c0.7-2.6,0.5-5.5,1-8.1c1.8-9.1,5.1-18.4,8.6-26.8c1.6-3.8,6.4-15.4,8.4-18.1c1.6-2.2,3.5-0.9,3.5,1.7
		c0,5.9,6.1-7.3,8.4-1.2v1.7l0.2,0.7c1-0.7,1.3-3.1,2.8-4.2c0.9-0.7,2,0,2.2,1.2c0.5,2.5-1,5.4-2,7.5c-0.6,1.3-0.9,2.4-0.5,3.8
		c0.3,1-2.2,17.8-2.5,20.6c-0.7,6.2-0.2,12.9-1.4,18.9c-0.2,1.3-1.2,1.3-1.4,0.1l-0.2,0.5c0,3-0.1,5.9,0.2,8.9
		c1-0.1,1.3-1.3,1.7-2.1c4.7-8,9.8-15.9,15-23.5c6.8-10.1,13-20.6,19.4-31.1c0.3-0.7,0.8-1.6,1.3-2.1c2.1-2.6,2.8,2,4.3,0.3
		c1.8-2.2,4.3-7.1,7-7.6c3.5-0.7,0.1,5.1,4,3.7c1.5-0.5,1.7-0.5,2.3,1.2s1.8-0.7,2.6-1.2l1.4,0.1l0.6,1.4c-2.9,8.9-6.8,17.2-10,26
		c-4.4,11.7-8.6,23.6-11.7,35.8c-3.7,14.3-4.5,29.5-8.3,43.7c-0.2,0.9-0.8,1.3-1.6,1.3c-1.8,0-1.5-3.3-1.7-4.7
		c-0.5-3.8-2.1,1.8-5.5-0.9c-1.6-1.3-1.7,2.1-3.8,1.3c-1.6-0.5-1.3-2.9-1.3-4.3l-0.3-0.5l-0.5,0.5c-0.6,6.7-4.3,8.8-5.6,4.2
		c-0.9-3,0.8-11.7,1.6-15c2.6-10.8,6.4-20.9,10.1-31.2c0.6-1.6,2.6-7.1,2.8-8.3l-0.6,0.7c-8.3,10.6-15,23.2-23.2,33.9
		c-1,1.3-2.1,4.5-3.9,2.9l-0.3-1c1-1.7,2.9-4.2,3.3-6.2c0.8-0.5,1.6-1.4,1.7-2.6c1-0.9,2-2,2.4-3.4c0.6-0.5,1.4-0.9,1.3-2
		c-0.6,0.4-1.2,1.2-1.3,2c-1.2,0.7-2,2-2.3,3.4c-1.3,0.7-2,2.6-2.8,3.8c-3,4.2-10-1.4-10.8-5.1c-0.7-3-0.8-6.3-1.3-9.3
		C662.6,83.6,655.1,111.7,654.5,112.2z M680.3,20.9c-1.2,1.2-3,7.1-2.4,8.7C678.9,26.8,679.6,23.8,680.3,20.9z M704.3,59.2v0.5
		l0.3-0.3c0.2-0.4,0.5-0.8,0.7-1c0.1-0.1-0.1-0.4-0.3-0.3C704.7,58.6,704.5,59,704.3,59.2z M708.1,54.8l0.1-0.5l-0.3,0.1
		c-0.5,0.5-0.6,1.3-0.5,1L708.1,54.8z M711.8,49.4l0.1,0.3l0.9-1c0.1-0.3-0.1-0.7-0.3-0.5L711.8,49.4z M727.5,29.6
		c0.5-0.3,3-6.6,3.5-7.5v-0.5c-1,0.9-2.9,5.9-3.6,7.5L727.5,29.6z"/>
</g>
</svg>
